<?xml version="1.0" encoding="UTF-8"?>
<svg version="1.1" xmlns="http://www.w3.org/2000/svg" width="540" height="540">
<path d="M0 0 C178.2 0 356.4 0 540 0 C540 178.2 540 356.4 540 540 C361.8 540 183.6 540 0 540 C0 361.8 0 183.6 0 0 Z " fill="#000000" transform="translate(0,0)"/>
<path d="M0 0 C1.21131592 0.00902344 2.42263184 0.01804688 3.6706543 0.02734375 C36.9872662 0.65443899 71.65893226 11.45129351 96.1640625 34.796875 C116.13458097 55.79680164 122.37617651 81.46064851 122.14160156 109.6784668 C122.14046968 111.62213111 122.14111356 113.56579712 122.14337158 115.50946045 C122.14450638 120.72113388 122.12119986 125.93242944 122.09307575 131.14401603 C122.06785349 136.61452996 122.06570384 142.08505517 122.06097412 147.55561829 C122.04860497 157.88590558 122.01586643 168.21602097 121.97557616 178.546233 C121.92225051 192.52591846 121.90086395 206.50565184 121.87756729 220.48541355 C121.84009985 242.46957081 121.76036887 264.45336552 121.6875 286.4375 C90.0075 286.4375 58.3275 286.4375 25.6875 286.4375 C25.63851562 274.72636719 25.58953125 263.01523437 25.5390625 250.94921875 C25.50367277 243.52538328 25.46779074 236.10155559 25.4296875 228.67773438 C25.36931393 216.89707212 25.31093727 205.11642446 25.265625 193.33569336 C25.23261196 184.75504359 25.19272969 176.17445747 25.14470994 167.59387809 C25.11953729 163.05347572 25.09772908 158.51311506 25.08415604 153.97266197 C25.07125145 149.69220725 25.04910798 145.41189627 25.02011681 141.13152122 C25.01110626 139.5671393 25.0053662 138.00273428 25.00328636 136.43832779 C24.97501878 118.39308726 22.17328395 102.9172895 9.5859375 89.13671875 C4.52126387 84.38523165 -0.89668885 81.06910457 -7.3125 78.4375 C-8.20453125 78.07140625 -9.0965625 77.7053125 -10.015625 77.328125 C-23.02986291 73.8124304 -38.27002277 75.87175929 -49.8984375 82.390625 C-64.32807806 90.95324777 -74.69671365 102.42699652 -79.49793243 118.727911 C-80.97011518 125.43231851 -80.88311906 132.14277381 -80.85839844 138.96801758 C-80.86715366 140.58568811 -80.87764615 142.20335001 -80.88972473 143.82099915 C-80.9173671 148.17140041 -80.92099428 152.52151607 -80.92000484 156.87199235 C-80.92315284 161.43374271 -80.94880996 165.99536796 -80.97198486 170.55705261 C-81.01240479 179.17686454 -81.03285249 187.79660109 -81.04595876 196.41649312 C-81.06485834 208.07752365 -81.11494683 219.73841871 -81.16320229 231.3993578 C-81.23830713 249.7453981 -81.27203187 268.09127484 -81.3125 286.4375 C-112.9925 286.4375 -144.6725 286.4375 -177.3125 286.4375 C-177.3125 194.6975 -177.3125 102.9575 -177.3125 8.4375 C-145.6325 8.4375 -113.9525 8.4375 -81.3125 8.4375 C-81.3125 18.0075 -81.3125 27.5775 -81.3125 37.4375 C-74.01060726 31.47105787 -74.01060726 31.47105787 -66.73828125 25.46875 C-47.53882852 9.72013994 -25.18009552 -0.22912151 0 0 Z " fill="#FEFEFE" transform="translate(300.3125,128.5625)"/>
</svg>
